<?xml version="1.0" encoding="utf-8"?>
<!-- Generator: Adobe Illustrator 21.0.0, SVG Export Plug-In . SVG Version: 6.00 Build 0)  -->
<svg version="1.1" xmlns="http://www.w3.org/2000/svg" xmlns:xlink="http://www.w3.org/1999/xlink" x="0px" y="0px" width="372px"
	 height="162px" viewBox="0 0 372 162" enable-background="new 0 0 372 162" xml:space="preserve">
<g id="Layer_1">
	<g>
		<g>
			<path fill="#2C3E50" d="M12,19.2c0-3.7,3-6.7,6.5-6.7h34c36.6,0,61.9,25.1,61.9,57.9v0.3c0,32.8-25.3,58.3-61.9,58.3h-34
				c-3.5,0-6.5-3-6.5-6.7V19.2z M52.5,116.9c29.5,0,48.3-20,48.3-45.8v-0.3c0-25.8-18.8-46.1-48.3-46.1H25.2v92.2H52.5z"/>
			<path fill="#2C3E50" d="M127.6,48.6c0-3.5,2.8-6.5,6.3-6.5c3.7,0,6.5,2.8,6.5,6.5v16.1c6.3-14.3,18.8-23,29.6-23
				c3.8,0,6.3,2.8,6.3,6.5c0,3.5-2.3,6-5.7,6.5c-16.6,2-30.3,14.5-30.3,39.3v29.3c0,3.5-2.7,6.5-6.3,6.5c-3.7,0-6.5-2.8-6.5-6.5
				V48.6z"/>
			<path fill="#2C3E50" d="M174.7,86.4v-0.3c0-24.3,19-45,45-45c25.8,0,44.8,20.3,44.8,44.6v0.3c0,24.3-19.1,45-45.1,45
				C193.5,131,174.7,110.7,174.7,86.4z M251.3,86.4v-0.3c0-18.5-13.8-33.6-32-33.6c-18.6,0-31.5,15.1-31.5,33.3v0.3
				c0,18.5,13.7,33.5,31.8,33.5C238.3,119.6,251.3,104.6,251.3,86.4z"/>
			<path fill="#2C3E50" d="M275.1,48.6c0-3.7,2.8-6.5,6.3-6.5c3.7,0,6.5,2.8,6.5,6.5v11.7c7-10.3,17.1-19.1,33-19.1
				c20.6,0,41.1,16.3,41.1,44.6v0.3c0,28.1-20.3,44.8-41.1,44.8c-16,0-26.3-8.7-33-18.3V150c0,3.7-2.7,6.5-6.3,6.5
				c-3.7,0-6.5-2.8-6.5-6.5V48.6z M348.8,86.3v-0.3c0-20.3-14-33.3-30.3-33.3c-16,0-31.1,13.5-31.1,33.1v0.3
				c0,20,15.2,33.3,31.1,33.3C335.2,119.4,348.8,107.1,348.8,86.3z"/>
		</g>
	</g>
</g>
<g id="Layer_2" display="none">
</g>
</svg>
