<?xml version="1.0" encoding="utf-8"?>
<!-- Generator: Adobe Illustrator 21.0.0, SVG Export Plug-In . SVG Version: 6.00 Build 0)  -->
<svg version="1.1" xmlns="http://www.w3.org/2000/svg" xmlns:xlink="http://www.w3.org/1999/xlink" x="0px" y="0px" width="90px"
	 height="67px" viewBox="0 0 90 67" enable-background="new 0 0 90 67" xml:space="preserve">
<g id="Layer_1">
	<g>
		<g>
			<circle fill="#E6EDF4" cx="19.4" cy="23.1" r="7.6"/>
			
				<circle fill="none" stroke="#2C3E50" stroke-width="1.3484" stroke-linecap="round" stroke-linejoin="round" stroke-miterlimit="10" cx="19.4" cy="23.1" r="7.6"/>
			<path fill="#E6EDF4" d="M1.6,50.4c0-9.8,8-17.8,17.8-17.8s17.8,8,17.8,17.8"/>
			
				<path fill="none" stroke="#2C3E50" stroke-width="1.3484" stroke-linecap="round" stroke-linejoin="round" stroke-miterlimit="10" d="
				M1.6,50.4c0-9.8,8-17.8,17.8-17.8s17.8,8,17.8,17.8"/>
		</g>
		<g>
			<circle fill="#E6EDF4" cx="70.6" cy="23.1" r="7.6"/>
			
				<circle fill="none" stroke="#2C3E50" stroke-width="1.3484" stroke-linecap="round" stroke-linejoin="round" stroke-miterlimit="10" cx="70.6" cy="23.1" r="7.6"/>
			<path fill="#E6EDF4" d="M52.8,50.4c0-9.8,8-17.8,17.8-17.8s17.8,8,17.8,17.8"/>
			
				<path fill="none" stroke="#2C3E50" stroke-width="1.3484" stroke-linecap="round" stroke-linejoin="round" stroke-miterlimit="10" d="
				M52.8,50.4c0-9.8,8-17.8,17.8-17.8s17.8,8,17.8,17.8"/>
		</g>
		<g>
			<circle fill="#E6EDF4" cx="44.7" cy="18.6" r="11"/>
			
				<circle fill="none" stroke="#2C3E50" stroke-width="1.3484" stroke-linecap="round" stroke-linejoin="round" stroke-miterlimit="10" cx="44.7" cy="18.6" r="11"/>
			<path fill="#E6EDF4" d="M18.9,59.4c0-14.3,11.6-26.9,25.9-26.9s25.9,12.6,25.9,26.9"/>
			
				<path fill="none" stroke="#2C3E50" stroke-width="1.3484" stroke-linecap="round" stroke-linejoin="round" stroke-miterlimit="10" d="
				M18.9,58.4c0-14.3,11.6-25.9,25.9-25.9s25.9,11.6,25.9,25.9"/>
		</g>
	</g>
</g>
<g id="Layer_2" display="none">
</g>
</svg>
