<?xml version="1.0" encoding="utf-8"?>
<!-- Generator: Adobe Illustrator 21.0.0, SVG Export Plug-In . SVG Version: 6.00 Build 0)  -->
<svg version="1.1" xmlns="http://www.w3.org/2000/svg" xmlns:xlink="http://www.w3.org/1999/xlink" x="0px" y="0px" width="213px"
	 height="58px" viewBox="0 0 213 58" enable-background="new 0 0 213 58" xml:space="preserve">
<g id="Layer_1">
	<g>
		<g>
			<path fill="#071C2C" d="M140.9,19.6l-10.5,20.9c-0.2,0.3-0.5,0.5-0.9,0.5H126c-0.4,0-0.7-0.2-0.9-0.5l-10.5-20.9
				c-0.2-0.4-0.2-0.8,0-1.1l1.1-2c0.2-0.4,0.6-0.6,1.1-0.6h1c0.3,0,0.5,0.1,0.6,0.4l8.8,17.8c0.2,0.4,0.7,0.4,0.9,0l8.8-17.8
				c0.1-0.2,0.4-0.4,0.6-0.4h1c0.4,0,0.8,0.2,1.1,0.6l1.1,2C141.1,18.8,141.1,19.2,140.9,19.6"/>
			<path fill="#071C2C" d="M88.8,19.6L78.2,40.5c-0.2,0.3-0.5,0.5-0.9,0.5h-3.5c-0.4,0-0.7-0.2-0.9-0.5L62.5,19.6
				c-0.2-0.4-0.2-0.8,0-1.1l1.1-2c0.2-0.4,0.6-0.6,1.1-0.6h1c0.3,0,0.5,0.1,0.6,0.4L75.2,34c0.2,0.4,0.7,0.4,0.9,0l8.8-17.8
				c0.1-0.2,0.4-0.4,0.6-0.4h1c0.4,0,0.8,0.2,1.1,0.6l1.1,2C88.9,18.8,89,19.2,88.8,19.6"/>
			<path fill="#071C2C" d="M103.9,16.2c-0.2-0.2-0.4-0.3-0.7-0.3h-1.6c-0.4,0-0.8,0.2-1.1,0.6l-1.1,2c-0.1,0.2-0.2,0.4-0.2,0.6v21
				c0,0.6,0.5,1,1,1h2.9c0.6,0,1-0.5,1-1V16.9C104.2,16.6,104,16.4,103.9,16.2"/>
			<path fill="#071C2C" d="M152.7,16.5c0.2-0.4,0.6-0.6,1.1-0.6h15.1c0.4,0,0.8,0.2,1,0.6l1.1,1.8c0.2,0.3,0.2,0.6,0.2,0.9v0.5
				c0,0.4-0.3,0.7-0.7,0.7h-13.7c-0.3,0-0.5,0.2-0.5,0.5v4.8c0,0.3,0.2,0.5,0.5,0.5h9.3c0.5,0,0.8,0.4,0.8,0.8v2.8
				c0,0.5-0.4,0.8-0.8,0.8h-9.3c-0.3,0-0.5,0.2-0.5,0.5V36c0,0.3,0.2,0.5,0.5,0.5h13.7c0.4,0,0.7,0.3,0.7,0.7v0.5
				c0,0.3-0.1,0.6-0.2,0.9l-1.1,1.8c-0.2,0.4-0.6,0.6-1,0.6h-15.1c-0.4,0-0.8-0.2-1.1-0.6l-1-1.8c-0.2-0.3-0.2-0.6-0.2-0.9l0-18.5
				c0-0.3,0.1-0.6,0.2-0.9L152.7,16.5z"/>
		</g>
		<g>
			<path fill="#3DC2E8" d="M190.8,26.9h1.2c0.2,0,0.3-0.1,0.3-0.3v-1.2c0-0.1,0-0.1-0.1-0.2l-8-9.3c-0.1-0.1-0.1-0.1-0.2-0.1h-1.2
				c-0.2,0-0.3,0.1-0.3,0.3v1.2c0,0.1,0,0.1,0.1,0.2l8,9.3C190.6,26.8,190.7,26.9,190.8,26.9z"/>
			<path fill="#3DC2E8" d="M203.6,15.8h1.2c0.2,0,0.3,0.1,0.3,0.3v1.2c0,0.1,0,0.1-0.1,0.2l-8,9.3c-0.1,0.1-0.1,0.1-0.2,0.1h-1.2
				c-0.2,0-0.3-0.1-0.3-0.3v-1.2c0-0.1,0-0.1,0.1-0.2l8-9.3C203.4,15.8,203.5,15.8,203.6,15.8z"/>
			<path fill="#3DC2E8" d="M190.8,30h1.2c0.2,0,0.3,0.1,0.3,0.3v1.2c0,0.1,0,0.1-0.1,0.2l-8,9.3c-0.1,0.1-0.1,0.1-0.2,0.1h-1.2
				c-0.2,0-0.3-0.1-0.3-0.3v-1.2c0-0.1,0-0.1,0.1-0.2l8-9.3C190.6,30.1,190.7,30,190.8,30z"/>
			<path fill="#3DC2E8" d="M203.6,41.1h1.2c0.2,0,0.3-0.1,0.3-0.3v-1.2c0-0.1,0-0.1-0.1-0.2l-8-9.3c-0.1-0.1-0.1-0.1-0.2-0.1h-1.2
				c-0.2,0-0.3,0.1-0.3,0.3v1.2c0,0.1,0,0.1,0.1,0.2l8,9.3C203.4,41.1,203.5,41.1,203.6,41.1z"/>
		</g>
		<path fill="#3DC2E8" d="M34.2,8.9c-0.5-1-1.6-1.5-2.7-1.5h-6.1c-1.1,0-2.1,0.6-2.7,1.5L5.4,39.4c-0.5,1-0.5,2.1,0,3.1l3,5.3
			c0.5,1,1.6,1.5,2.7,1.5h34.8c1.1,0,2.1-0.6,2.7-1.5l3-5.3c0.5-1,0.5-2.1,0-3.1L34.2,8.9z M36.8,42.3c-2.6,0.8-5.4,1.3-8.3,1.3
			c-2.9,0-5.7-0.4-8.3-1.3c-3.1-1-5-4.1-4.3-7.3c1.2-5.8,4.2-10.9,8.3-14.7c2.4-2.2,6.1-2.2,8.5,0c4.2,3.9,7.1,9,8.3,14.7
			C41.8,38.2,39.9,41.3,36.8,42.3z"/>
	</g>
</g>
<g id="Layer_2" display="none">
</g>
</svg>
